<?xml version="1.0" encoding="UTF-8"?>
<svg id="Layer_1" xmlns="http://www.w3.org/2000/svg" version="1.1" viewBox="0 0 1787.2 483.7">
  <!-- Generator: Adobe Illustrator 30.0.0, SVG Export Plug-In . SVG Version: 2.1.1 Build 123)  -->
  <defs>
    <style>
      .st0 {
        fill: #1d1d1f;
      }

      .st1 {
        fill: #1b734a;
      }

      .st2 {
        opacity: .7;
      }
    </style>
  </defs>
  <g id="CzRZHv" class="st2">
    <g>
      <path class="st1" d="M156.2,204.3c5.9-4.1,14.9-10.2,22-11.2s30.3-.8,31.4.3.1,4.9-.4,5.7c-.5,9.3-.6,18.6-.2,28,0,3.8-.2,6.8-4.6,4.7-5.5,3.2-14.8,1.4-20.2-1.9-6.2,2.2-9.5,1.5-9.8-2.1v-1.1c2.7-1,5.1-2.4,7-4.1,5.4-9,.4-13.8-9.6-11.3-4.9,1.2-9.8,2.8-14.5,4.7-9.7,1.4-7.8-8.3-1.1-11.7h0Z"/>
      <path class="st1" d="M351.6,384.4V14.9h-21.6v379.2c7.2-3.2,14.4-6.4,21.6-9.6h0Z"/>
      <path class="st1" d="M318.3,399l.4-361.5h-24.3v370.4c8.1-2.8,16-5.8,23.9-8.9Z"/>
      <path class="st1" d="M280.5,67.1c.4-.2.8-.4,1.2-.3,1.6.2.2,29.1-.3,31.6-15.8,1.9-31.8,3.1-48.1,3.8-2.7-1.8-3.2-5.1-1.5-10,.6-1,.9-1.1,1.7-1.7,7.3-3,14.2-6.5,20.9-10.4,3.7-3.4,5.1-2.3,8.3.9,3.5-2.4,7.2-1.6,11,2.3,1.4-1.6,3.4-2.7,5.4-3l-.5-12.2,1.9-1.2v.2Z"/>
      <path class="st1" d="M231,122.7c2.4,2.5-2.5,1.7-2.2,1.6,3.4-2.2,4.1,0,4,3.3,2.1,3.6,3,7.7,2.7,12.5,3.2-4.9,6.1-6.3,8.5-4.4.5,3.1,1.4,16-.2,18.4s-10.1,8-11.7,3.9l-10.9-3.8c-7.5,1.6-9.9-3.5-3.2-7.3,2.5-4.6,3.1-7.8,1.7-9.6-1.1-.7-1-.7-1.7-1.7-1.1-.9-1.3-1.1-.4-.8-3.8-1-8.9-2.3-5.7-7.1.2-.3.6-.6.9-.9,5.3-2.7,12.7-5.6,18.2-4.3v.2Z"/>
      <path class="st1" d="M258.8,389.4v1.7c-.7,8.7-.7,17.4,0,26.1v.9c7.9-1.7,15.7-3.8,23.5-6.2v-51.2h-23c-1.1.2-.3,1.8-.5,2.6-.7,8.6-.9,17.5,0,26.1h0Z"/>
      <path class="st1" d="M167.5,230.4c3.9-.4,7.2.5,9.8,2.6,6.5-4.4,8.7,7.7,2.8,10.3,1,1.7.5,3.2-1.3,4.5.5.5.8,1,.8,1-1.8,2-14.3,6.2-17.3,6.8-2.7,1.9-8.2,4.6-11.3,3.5-11,3.6-9.9-7.8-.7-7.1,2.7-2.3,5.6-4.5,9.3-4.4-.6-3.6-2-6.8-4.2-9.4-1.8,0-1.1-.6,0-1.7,2.7-1.6,5-3.6,7.8-5.2,1.6-.3,3-.6,4.3-.9h0Z"/>
      <path class="st1" d="M246.6,329.4l-24.3-.9c.5-48.7-1.5-97.2-.9-146,2.8,1.1,25.2-2.8,25.2.4v146.4h0Z"/>
      <path class="st1" d="M282.2,114v212.9l-23.5-.9V115.3c0-.3-1.1-.7-.9-1.3h24.4Z"/>
      <path class="st1" d="M175.3,277.3v33.4c0,2-13.8,1.4-16.1,1.3-13.7,0-28.8,1.2-42.6,0-14.6-1.2-12.9-14,.3-17.2,5.7-1.4,29.9-3.4,32.4-6.9s.6-8.2,1.2-9,5.7-1.7,6.2-1.7h18.7,0Z"/>
      <path class="st1" d="M156.2,203.5c3.4-2.8,18.5-11.3,22.2-11.3h31.7l.5,55.7c-2.1,2.9-25.5,1-30.4,1.7s-13.2,5.5-17,6.9c-1.1.2-1.3.2-.9-.9,3-1.1,15.9-5.1,16.5-7.8l1-1.7h27.5c-.5-6.3,0-12.4,1.6-18.3-.3-9.6-.2-19.1.3-28.6v-5.2c-9.5.9-20.8-1.1-30,0s-16,6.8-23,10.5c-.4-.3-.4-.6,0-.9h0Z"/>
      <path class="st1" d="M185.8,261.7l24.3-.9c.1,13.2-.2,26.4,0,39.6,0,5.3,1.3,10.7.9,16.5-.1,2.2-.7,10.2-2.3,10.7-6.1-1.7-14.2.3-19.8-.8s-3.1-1.5-3.1-2.1v-63h0Z"/>
      <path class="st1" d="M212.7,127c4.2-3.9,15.4-6.1,21.4-6.8s10.3-.9,10.8-.6c1.2.8,1.6,4.6,1.7,6.1.4,4.5.5,39.8-.9,41.3l-68.6,3.5c.2-2-.4-4.4.2-6.4s1.4-1.2,1.6-1.4c1.3.9,1.6,2.5.8,4.9,6.2-1,12-.9,17.4.3,2.9-3.1,10.5-3.4,15.1-3.5,10.5-.3,21.3-.5,31.6,1,0-11,.3-22,1.1-33.1l-.4-2.3c1.4-6.3.1-9.3-3.9-9-1.3,2.5-7.7,4.1-9.6,1.7-6.2,1-12.4,1.7-18.2,4.3h-.1Z"/>
      <path class="st1" d="M255.3,77.5c4.3-4.2.8-11.3,6.5-11.3h21.3l-1.7,33.5-48.3,3c-4.8-.9-3.2-7.2-1.3-10.4,1.4,2.3-2.2,9.3,2.2,9.6l47.4-3.5c-.9-9.2,1.1-20.3,0-29.2-.1-1,.4-1.7-.9-2.1l-.8,1.7-17.8,1.1c-.4,6.9-2.6,9.7-6.5,8.6v-.9h0Z"/>
      <path class="st1" d="M125.8,247.8v2c-8,7.8-5.4,11.2,4.8,10.4l20.4-1.1c4.5-1.1,7-1.9,11.3-3.5l.9.9c-3.3,1.2-6.8,3.2-10.2,4.1-9.6,2.6-19.8,2.3-29.8,2.5-9.6-3.8-4.4-12.6,2.7-16.1.7.2.7.5,0,.9h0Z"/>
      <path class="st1" d="M217.9,147c-3.9,4.4-11.6,7.4-18,8.9l-2-1.1-.4,2c-5.9,1.3-11.5,3.5-16.8,6.7l-1.9-.9c6.3-8.6,28.8-11,38.2-16.9,2.4-1.8,2.7-5.5,2.6-8.2.1,0,2-1.8,1.7,2.1s-2.2,6.6-3.4,7.5h0Z"/>
      <path class="st1" d="M156.2,204.3c-1.8,3.4-6.3,4.2-4.8,8.7,2.5,7.6,15.5-4.2,20.5-1.8-5.3,1.3-18.8,10.1-21.3,2.7-1.8-5.4,2.1-7.5,5.7-10.5v.9h0Z"/>
      <path class="st1" d="M155.4,238.2l-.4,2.1c-8.9,3.4-18.1,6.3-27.5,8.6l-1.7-1.1v-.9c9.2-4.6,19.9-4.9,29.5-10.4v1.7h0Z"/>
      <path class="st1" d="M255.3,78.3c1,.8.4,2.1-.9,1.7-3.9,3.8-12.4,7.8-17.4,10s-2.9,2.2-3.5.4c6.1-4.7,15.2-6.6,21.7-13v.9h0Z"/>
      <path class="st1" d="M174.5,227.8c.6,3.2-4.5,3.5-7,2.6-1.2.6-3.8,2.7-4.3.9,5.9-3.4,12-6.1,18.2-8.7,0,0,1,.4,0,1.2s-5.5,3.3-7,4h.1Z"/>
      <path class="st1" d="M282.2,411.9v-13.8,13.8h0Z"/>
      <path class="st1" d="M258.8,389.4c-1.4-.9-.9-3.3-.9-4.8,0-6.5-.8-15.4.9-21.3v26.1h0Z"/>
      <path class="st1" d="M258.8,417.2c-1.5-6.6-1-14.4-.9-21.3s-.6-3.9.9-4.8v26.1h0Z"/>
      <path class="st1" d="M217.9,135.7c-3-1.1-9-1.8-7.7-6.4s1.4-1.2,1.6-1.4c-1,6.5,2.7,4.8,6.2,6.5s-.1,1.2,0,1.3h-.1Z"/>
      <path class="st1" d="M209.2,199.1c.6,16.2-.4,32.5,0,48.7h-30.4c.1-.5-2.1-1.4.9-2.2l-2.6-2.6c5.2-3,5.6-2.9,3.9-9.1-.9-1.8-2.1,1.3-4.1.8s-1.8-1.5-2.6-1.8c-2.3-.8-5.1-.4-6.7-2.4,2.4-1.1,5.1-1.7,7-2.6,2.7,3.3,8,.2,10,.3s3.6,2.2,5.6,2.7,9.4.9,10,.9c3,0,5.2-4.4,6.1-.5.4-.8,1.8-.7,2.1-1,1.8-2.7-1.7-26.2,1-31.1h-.2Z"/>
      <path class="st1" d="M351.6,384.4v-114.5c-1.4.4-2.9,2-2.8,4,.6,1.3-2.3,11.1-3,11.1,0-5-3-12.7-7.4-5.9.3,7.9-.7,11.1-6.8,15.6-.8,33-1.2,66-.9,99,7-3,13.9-6.2,20.8-9.3h0Z"/>
      <path class="st1" d="M330.5,393.9c.2-.1.5-.2.7-.3,0-33,.5-66.2.5-98.9,2.1-23,2.8-46.1.6-69.1,3.4,8.3,6-1.9,6-6.6.8,1,1.6,1.5,2.4,1.6V16.7h-9.8c1,10.2.8,20.6.8,30.8v56.9c0,96.1-1.7,192.8-1.2,289.5Z"/>
      <path class="st1" d="M351.6,271.7v-64.9c-.9,1.2-2.6,2.7-3,4.5-1.4-.5-.5-2.7-1.2-3.1-6-3.1-2.3,1.8-2.2,2.6,0,.2-1.6,4-1.9,4.6-1,1.7-2.8.2-1.2,3.7-2.6.4-3.3-4.2-5.3-1.3-.8,1.2-.8,7.2-1.7,9.2-2.5.7-1.5-2.1-3.5-2.6v70.4c1.6,1.5,6.3-3.1,6.9-4,1.9-3.2,1.3-12.1,1.8-12.5.8-.6,2.7,1,3.1,1.8.2.5-.4,8,2.5,6.9,3-1.1,2.5-5.2,3.1-7.2.2-.8,1.7-.6,1.7-1.1,0-1.3-1.2-6,.8-6.8v-.2Z"/>
      <path class="st1" d="M297,39.3l1.3,1.8c-.6,5.1-.7,10.2-.2,15.3,4.4-1.6,5.1,2.4,1.9,5,2,1.6,2.5,4.2.6,6.1,1.4,1.4,2.6,2.8,3.7,4.2,4.2-3.1,6.4-1.7,6.6,4.1,1.4-2.3,2.9-4.2,4.5-5.6l-.2-16c0-1.8.8-2.3,2.6-1.9v101.7c-.8,4-.7,8.2,0,12.2v.9c-.7,1.7-.7,3.6,0,5.2v.9c-.5,35.8-.8,72.3-.9,109.5-4.1.8-5.5,3.2-6.5,7.6-.4,12.7-11.8,2.4-10.2-5.3-4.8-3.6-5.8-7.8-3.5-13.5-.7-2.3-1.1-4.6-1.4-7V40c0-.9,1.1-.4,1.8-.5v-.2Z"/>
      <path class="st1" d="M317.3,399.4c.4-38.8.3-77.8-.3-116.9-5.9-4.6-9.2,8.8-9.1,13-1.6-1.8-5.4-4.8-6.1-7-.4-1.4.5-2.5.3-3.7-.7-4.1-7.9-4.1-5.5-10.7.5-1.2,2.4-2.1,2.2-3.3-.2-.8-1.7-1.4-2.1-2.3-.6-1.5,0-3.4-1.3-4.3,0,46.9-2,96.5-.5,143.5,7.6-2.6,15.1-5.4,22.5-8.4h-.1Z"/>
      <path class="st1" d="M297,39.3c6.4-.8,14.3.6,20.9,0-.1,4.3.2,8.7,0,13s-.9,1-.9,2.1c0,2.8.5,16.9,0,17.9s-2.6-1.1-2.6.4,4.2-.7,2.6,3.9c-4-4.4-3.4,1.9-7.3.8s.5-5.9-1.8-6-3,1.7-3,2.1c0,.7,3.1,1.6-.5,3.9-1,0-1.8-9.5-6.9-8.7s.2,2.2-1.3,1.8c-1.3-6.7,2.6-3.5,3.5-4.3,1.2-1.2-.1-5.4-3.5-2.6-1.3-1.5,5-3.9,4.3-6.5l-4.3,3c.9-6.8-1.3-14.2.9-20.8h-.1Z"/>
      <path class="st1" d="M317,282.5v117c.3-.1.6-.2.8-.3v-226.1c-1.4.9-.9,3.3-.9,4.8-.4,34.9,0,69.8,0,104.7h.1Z"/>
      <path class="st1" d="M317.8,166.1c-1.5-3.1-1.4-9.3,0-12.2v12.2Z"/>
      <path class="st1" d="M317.8,172.2c-1.4-.8-1.4-4.3,0-5.2v5.2Z"/>
      <path class="st1" d="M280.5,67.1c-.7,3.8.9,11,0,14.2s-3.6,1.5-4.7,2.4-1.3,2.4-1.4,2.5c-.7.5-4.3-3.8-5.6-4.3-4-1.6-4.3.8-6.1.9s-6.5-7.3-6.5-1.5l-1.7-1.1c.3-.3.5-1.3.9-1.7,5.2-.3,3.7-9,5.2-10s18.7-1.7,20-1.2v-.2Z"/>
      <path class="st1" d="M244.9,132.2c.1,11.3,0,22.6,0,33.9-10.8.4-21.8-.5-32.6,0-4.8.2-10.3,1.3-15.2,1.8-7.6-1.7-2.4-5.5,3-5.8-3.3-.6-4.6-5.3-2.1-7.3,4.2-1.7,17.2-5.8,20-7.8-1.1,2.1-4.7,1.7-.9,3-4.3,4.6,2.3,2.1,4.4,2.6,2.1.4,8.9,3.1,11.5,4s.7,1.7,1.1,1.6c1.7-.2,9.3-4.9,9.8-6.7.9-3.1.2-12,.2-15.9-1.7-1.1-1.7-2.4,0-3.5.2-.8.5-.7.9,0h0Z"/>
      <path class="st1" d="M240.5,120.9c1.1.6,2.3.8,3.7.4.6.4.5,9.5-.2,10.9v3.5c-4.5.1-4.8,3.7-6.6,5.1-5.8,4.7-3.7-6.6-3.8-8.1s-1.7-3-2.4-4.6,1.3-4.4-2.8-3.7l2.6-1.7c3.2-.5,6.2-1.6,9.6-1.7h-.1Z"/>
      <path class="st1" d="M259.5,417.9c7.2-1.6,14.4-3.5,21.4-5.6,0-11.7-.2-23.3-.5-35-2.6,1.7-5.8,11.1-8.7,10.9-3.2-.2-2.1-6-3.3-7.8-.7-1-2.5-.3-2.7-.5-.5-.5,1.1-2.9.5-3.5s-2.3-.5-2.9-1.1.2-3-3.7-3.2c.2,15.3,0,30.6,0,45.9h0Z"/>
      <path class="st1" d="M280.5,412.4c.3,0,.6-.2.9-.3v-35.8c-.3-.7-.6-.8-.9,0v.9c.2,11.7,0,23.4,0,35.2h0Z"/>
      <path class="st1" d="M280.5,376.4c0-2.9.4-10.4,0-12.6s-3,.4-2.7-1.3c1,0,2.1-.1,3,0s.4,12.2.4,13.9h-.9.2Z"/>
      <path class="st1" d="M155.4,238.2c.5-.2,1.2-1,1.6-.8,2.7,3.1,3.1,5,3.9,8.9s2.7,2.7-.6,3c-2.7.3-6,0-6.7,3.7l-1.7-1.7c1,4.5-3,1-6.2,3,.7,1.5-2.6,2.5-.8,3.5s4.1,1.4,6.1,1.3c-1.1.3-2.4,1.2-4.1,1.5-4.9.8-21.4,2.2-25.2.5-5.5-2.5.2-11.3,4.1-13.3s17.3-4.6,23.9-6.9,3.7-1.8,5.6-2.6h0Z"/>
      <path class="st1" d="M244.9,240.8l.9,21.7v20.9l-.5,44.4c-6.5-.8-13-.7-19.5,0-.8-.1-1.7,0-2.2-.8-.7-28.9-.4-58-.4-86.9,2.5,1.4,3.5,4.4,2.8,9,4-2.4,6.1-.4,7.2,3.5,2.1-1.3,4.2-1,6,.7,2.2-8.2,3.1-16.6,2.9-25.1.3-1.8.7-2.7,2.7-2.1v14.8h.1Z"/>
      <path class="st1" d="M223.1,240c0-17.2.3-34.5,0-51.7s-1.2-3.7,0-4.3l21.8-1.3v43.4c-2.3,3.5-.7,8.2-.8,11.7-.3,6.4-2.4,8.7-3.2,14.1s.5,1.9.5,2.6c-.4,4.4-3.1-.6-5-1s-2.5,1.5-3.6,1c-1.5-.7-1.8-4.6-3-4.7-2.3-.2-5.3,2.1-2.2,4.2-4.5-.9-1.3,2.2-3.5,3.5,0-5.5.9-12-.9-17.4h-.1Z"/>
      <path class="st1" d="M245.7,283.4v45.2c-6-2.2-13.8,0-20-.9,2.5-2.2,18.2,0,19.1-.9l.9-43.4h0Z"/>
      <path class="st1" d="M245.7,262.5c-1.6-6.8-.9-14.7-.9-21.7,1.6,6.8.9,14.7.9,21.7Z"/>
      <path class="st1" d="M259.6,232.1v-117.3h21.7v112.1c-.4,12.4-.7,25.2-.9,38.2-.6,1.6-1.5,3.4-2.9,5.3,5.8,7.1-.3,8.8-6.2,3.6l-3.3.7c-1.6-1.9-3.4-3.5-5.5-4.8.2-3.9-.7-6.1-2.6-6.7.2-10.4,0-20.8-.4-31.1h0Z"/>
      <path class="st1" d="M259.6,232.1c2.5,6.1-.4,15.2.9,21.3.2,1.2,2-.9,2.6-.4-3.1,2.9-2.9,5.5-2.6,9.5l3.5-.9c.3,1.6-.5,7,.1,7.7s2.1,0,2.9,1,.2,2.3.5,2.6,3.4-1,4.6-.6c1.9.7,3.9,3.7,6.7,3.2.8-2.1-3.4-4.5-3.5-4.8-.8-3.3,1.4-1.6,2.4-2.3s.1-4,2.8-3.3c1.3,13.5,1.4,27.3.4,41.4l-1.1.8c2.3,7-1.7,7.1-7.4,5.9-2.1,2.1-4.8,3.6-7.9,4.5-3,2.7-4.3,3.1-4.9-1.3-.5-28,0-56.2,0-84.3h0Z"/>
      <path class="st1" d="M281.3,321.6l-.8,2.9c-7.1.5-14,.4-20.9-.3-.4-1.3,0-5.9,0-7.8l1.7,2.6c.6-3.3,5.4-3.7,8.2-5.3s1.3-2.2,1.5-2.3c.3-.2,6.5,1,7.7.7.7-1.7-1-4.5-.9-5.6s1.8-.7,2.2-1.4c1.1-1.7.4-34.7.4-40,0-11.1-.2-22.3,0-33.5,0-1.5-.6-3.9.9-4.8,0,30.6,1.8,64.5,0,94.7h0Z"/>
      <path class="st1" d="M281.3,321.6v3.5c-6.4-.6-14.2.8-20.5,0-.9-.1-1,0-1.3-.9,6.1-.6,13.7.9,19.6,0,1.9-.3,1.1-1.6,2.1-2.7h0Z"/>
      <path class="st1" d="M173.6,285.1c.2,8.7-.2,17.4,0,26.1-2.9.7-5.5-.5-7.8-.9-9-.4-18-.7-26.9-.9-.7-1.9-.7-3.3,1.1-4.7-1.5-2.6-.4-5,1.2-7.3-4.3-.7-8.6-2.5-2.3-4.5,2.7-.6,8.1-2.6,10.4-2.6,2.1-2,5.9-5.1,8.2-.8,1-.6,1.9-.7,2.8-.4,5.9,5.9,12.6,8.3,11.5-3l1.8-1.1h0Z"/>
      <path class="st1" d="M138.9,292.9l-2.6,1.7c11.5,1.5,5.1,3.3,4.7,7.4s1.4,3,1.3,3.5c0,.8-1.9.9-2.4,1.4s1.2,1.9-1,2.5c-2.6,1-24.2,1.5-24.7-.4s3-3.1,4.9-2.6c.7-2.7.5-5.8-.6-9.4,3.6-1.1,7.5-1.9,11.6-2.3,2.9-.7,5.8-1.1,8.7-1.7h0Z"/>
      <path class="st1" d="M149.3,290.3c3.2-1.7,2.2-10.9,2.6-11.3.8-.8,18.8.6,21.7,0v6.1l-.9,13c-1.7.2-.5-1.8-.9-2.6s-4.1.4-6.2-.2c-3.2-1-5.9-4.9-6.3-4.9s-1.1,1.8-2.2,1.3c-2.6-1.2,0-4.8-4.8-1.3l-1.3-1.7c.4,4.7-1.2,1.7-1.7,1.7h0Z"/>
      <path class="st1" d="M130.2,294.7c-3.4.8-6.7,2.5-10.4,1.7-.4,1.5,1.3.6,1.6.9s-.8,1.8-.7,2.9c.2,2.7,2.3,5.8-.9,7.9-.4.2-6.1-.7-3.5,1.4s19.5,0,22.6,0c9.1,0,18.1-.4,26.9.9-16.4-1.1-34.7,1.5-50.9,0-4.8-.4-8.9-3.4-6.7-8.5,2.7-6.4,15.9-6.9,21.9-7.2h.1Z"/>
      <path class="st1" d="M187.5,286l1-2.7c-2.2-7.6,1.8-10.2,11.8-7.7,5.2-1.8,7.9-1,8,2.5l.5,11.9c1.1,21,0,28.6-3.6,22.8l-8.6-.6c-6.5,3.9-9.2,2.8-8.1-3.3-.8-.4-1-1.3-1.1-2.1,0-6.9.1-13.9,0-20.9h.1Z"/>
      <path class="st1" d="M208.4,262.5c3,1-.5,56.6.9,63.4h-18.7c-.2,0-3-1-3.1-1.4v-17.7l2.6.4c-2.6,9.9,2.8,3.9,6.3,3.2s9.1.5,9.5.6c1.1.2.9,2.6,2.3,2.6v-35.6c-.2-1-.6-1.7-1.7-1.8-.4-1-.6-14,1.7-13.8h.2Z"/>
      <path class="st1" d="M208.4,262.5v15.6c-1.5-3.3-5.2-.8-8.2-.8s-9.6-2.6-11.3,1.7,3,4.6-1.3,7c-.2-7.7-1.5-15.6-.9-23.5,5.2,1.1,17.6-1.4,21.7,0h0Z"/>
      <path class="st1" d="M197.9,154.8c.7,1.2.5,4.3,1.1,5s4.2,1,4.1,2.4-7,2.1-8.7,3.1l2.6,2.6c-6.4.6-12.7,1.3-19.1,1.7-.4-.4.3-6.3.9-7s9.8-5,11.3-5.6c2.6-1.1,5.7-1.4,7.8-2.2h0Z"/>
      <path class="st1" d="M240.5,120.9h4.3v11.3h-.9c0-1.9.4-9.7,0-10.4s-2.8,1.3-3.5-.9h0Z"/>
      <path class="st1" d="M351.6,80.4c-.4-.2-.8-.4-1.2-.3-2.1.5-1.4,3.8,1.2,3.6,0,0,0-3.3,0-3.3Z"/>
      <path class="st1" d="M350.8,213c.3,3.8.3,4.9-3.5,5.2-.6-1.1,2.2-6.8,3.5-5.2Z"/>
      <rect class="st1" x="142.3" y="259.1" width="4.3" height=".9"/>
      <path class="st1" d="M260.5,268.6l.4-3.5c1.9,1.3,1.7,2.7-.4,3.5Z"/>
    </g>
  </g>
  <path class="st1" d="M358.3,109.6v272c15.5-8,30.6-16.5,45.4-25.3.6-.5,1.3-.9,2.1-1.3,24.4-14.6,47.6-30.1,69.3-45.7-3.4-1.3-6.4-3.7-8.2-7.3,1.4-1.2,2-5.1,2.4-5.7h0c1-1,10.9-7.1,12.3-7.8,8.5-4.3,15.1-1.6,16.6,3.8,11-8.3,21.5-16.5,31.4-24.5-8.8-6.5-20.1-13.7-26.8-15-5.8-1.2-14.2.2-19-3.8,8.4-2.1,17.7-4.8,26.4-5.9,11.1-1.4,39.9-.3,47.6-6.6,9.6-7.7-14.6-14.7-19.8-16.3-17.9-5.7-34.3-6.3-51.7-10.3-4-.9-9.4-3.3-5.1-7.8,4.9-5,22.7-2,29.5-1.2,6.2.7,16.4,4.1,22.3,2.3,5.5-1.7,2-9.5-1.1-12.3-9.8-8.9-30.9-16.3-43.1-23.2-16.2-9.2-46.9-32.3-60.3-45-3.7-3.5-8.5-10.7-.4-11.5,13.3-1.3,35.4,10.1,49.3,11.9,3.9.5,12.5,1.6,10.4-4.3-15.5-12-31.7-23.6-47.2-35.9.1-.3.7-.6.9-.9,6.8,2.1,26.1.6,15.9-9.5-3.8-3.7-14.9-9.9-20-12.8-18.6-10.6-41-17.2-58.8-26-.6-.3-1.1-.6-1.7-.9l-14.7-13.3c-1.5-1.7-2.9-3.7-4.3-5.6v81.5c4.9-3.5,12.1-4,14.3,2.8,2.5,7.9-8,13.9-14.3,11.2l.4.2ZM377.3,250.8c-.2.2-3.8,1-4.3.9-1.9-.7-6.7-13.3-2.9-14.5,7-2.3,9.4,11.5,7.2,13.7h0ZM458.7,285.3c-2.9,11.2-24,16.9-34,12.9-.3-.1-.6.1-.9,0-4.7-2.2-2.6-8.5,1.1-10.9,2.9-1.9,14.8-8,18.1-9.1,6.5-2.3,18.4-3.1,15.7,7.1h0ZM435,204.1c1-1.9,13.9-6.4,16.7-6.3,11.1.4,5.1,8.8-.5,12.2-.2.1-.5.3-.7.4-5.8,3.1-19.9,2.2-15.5-6.3h0ZM407,158.7c8.1.6,18,7.1,21.9,14.3,1.3,2.4,2,5.2-1,6.6-4.1,1.9-21.4-3.3-26.7-4.8-1.1-.3-2.3.3-2.4.3-.7-.2-4.7-4-5-4.9-2.2-7.6,6.7-11.9,13.2-11.4h0ZM388.2,99.3c4-3.6,17.8-2.2,16.6,5.6-.6,4.4-12.6,9.1-16.4,8.2-.2,0-.6-.6-.9-.9-2.6-2.7-1.9-10.7.6-13h0ZM376.5,161.8c-1.2,1.2-7,4.9-8.6,5.6-2.9,1.2-3.2,1-6,0,0-1.8.5-3.5,1.3-5.2,2-4.3,5.2-9.3,9.9-10.8,8.6-2.7,8.4,5.5,3.5,10.4h0Z"/>
  <path class="st1" d="M146.6,475.9c39.2-2.8,77.9-6.1,116.3-16.7,10.3-2.8,20.5-5.9,30.7-9.1,5.3-2.4,10.2-4.2,13.6-4.4h.1c73.5-24.4,97.3-44.2,161.5-84.2,48.8-30.4,87.5-69.5,126.3-110.6,1.6-1.7,25.6-30,34.6-41.9,4.9-8.8,8.9-18,11.5-27.3,19.8-69.4-28.9-79.7-80.8-77.3-11.2.5-47.1,4.5-56,9.1-6.4,3.4-.8,4.8,3.8,5.2,9.7.8,23.2-2.1,33.3-2.5,33.5-1.3,75.9,7.1,79.2,49.8,3.3,42.3-51.3,94-82.9,119.3-83,66.4-127.2,104.3-229,141-67.3,24.2-157.1,48.3-228,27.3-65.6-19.4-44.8-70.1-12.8-108.9,11.8-14.4,5.9.5,17.1-13.3,1.5-1.8,6.2-8.3,0-7.5-.5,0-.5,1.3-1.1,1.7-5.5,3.2-11.5,8.1-16.5,12.2-33.8,27.7-65.2,54.3-39.5,100.3,16.8,29.9,72.8,37.8,118.5,37.9h0Z"/>
  <g>
    <path class="st0" d="M704.9,159.8h52.1v27.8h1.2c6.9-11.3,15.9-19.7,27-25.1,11-5.4,22.4-8.1,33.9-8.1s26.7,2,36.1,6c9.4,4,16.8,9.5,22.2,16.6s9.2,15.7,11.4,25.8c2.2,10.2,3.3,21.4,3.3,33.7v122.6h-54.8v-112.6c0-16.4-2.6-28.7-7.9-36.8-5.3-8.1-14.3-12.1-27.2-12.1s-25.7,4.4-32.4,13.3c-6.7,8.9-10,23.5-10,43.8v104.5h-54.8v-199.4h0Z"/>
    <path class="st0" d="M927.4,259.6c0-15.9,2.4-30.4,7.3-43.4,4.9-13,11.8-24,20.8-33.2,9-9.1,19.8-16.2,32.4-21.2,12.6-5,26.7-7.5,42.4-7.5s29.9,2.5,42.6,7.5,23.6,12.1,32.6,21.2c9,9.1,15.9,20.2,20.8,33.2s7.3,27.4,7.3,43.4-2.4,30.3-7.3,43.2c-4.9,12.9-11.8,23.8-20.8,33-9,9.1-19.9,16.2-32.6,21.2s-26.9,7.5-42.6,7.5-29.8-2.5-42.4-7.5c-12.6-5-23.4-12.1-32.4-21.2s-15.9-20.1-20.8-33c-4.9-12.9-7.3-27.2-7.3-43.2ZM982.2,259.6c0,8,.8,15.8,2.3,23.3,1.5,7.6,4.2,14.4,7.9,20.4s8.7,10.9,14.8,14.5c6.2,3.6,13.9,5.4,23.1,5.4s17-1.8,23.3-5.4,11.3-8.4,15-14.5c3.7-6,6.4-12.9,7.9-20.4,1.5-7.6,2.3-15.4,2.3-23.3s-.8-15.8-2.3-23.5-4.2-14.5-7.9-20.4c-3.7-5.9-8.7-10.7-15-14.5-6.3-3.7-14.1-5.6-23.3-5.6s-17,1.9-23.1,5.6c-6.2,3.7-11.1,8.5-14.8,14.5-3.7,5.9-6.4,12.7-7.9,20.4s-2.3,15.6-2.3,23.5h0Z"/>
    <path class="st0" d="M1397.1,359.1h-56.3l-35.5-133.8h-.8l-33.9,133.8h-56.7l-63.2-199.4h57.8l36.6,135.4h.8l33.2-135.4h53.2l33.9,135h.8l36.6-135h56.3l-62.9,199.4h0Z"/>
    <path class="st0" d="M1485.8,83.8h24.3v275.3h-24.3V83.8Z"/>
    <path class="st0" d="M1556.7,83.8h24.3v114.1h.8c2.6-7.2,6.2-13.5,11-18.9s10.2-9.9,16.4-13.5c6.2-3.6,12.8-6.4,19.9-8.3,7.1-1.9,14.3-2.9,21.8-2.9,15.2,0,28.3,2.8,39.5,8.5s20.5,13.3,28,22.9c7.5,9.6,13,20.8,16.6,33.5s5.4,26.2,5.4,40.3-1.8,27.6-5.4,40.3c-3.6,12.7-9.1,23.9-16.6,33.5s-16.8,17.3-28,22.9c-11.2,5.7-24.4,8.5-39.5,8.5s-30.7-3.9-43.4-11.6c-12.7-7.7-21.9-18.4-27.6-32h-.8v37.8h-22.4V83.8h0ZM1716,259.6c0-10.3-1.2-20.5-3.7-30.7-2.4-10.2-6.3-19.2-11.6-27.2-5.3-8-12-14.5-20.2-19.5s-18.1-7.5-29.7-7.5-23.7,2.5-32.6,7.5-16.1,11.5-21.6,19.5-9.5,17-12,27.2c-2.4,10.2-3.7,20.4-3.7,30.7s1.2,20.5,3.7,30.7c2.4,10.2,6.4,19.2,12,27.2,5.5,8,12.7,14.5,21.6,19.5s19.7,7.5,32.6,7.5,21.5-2.5,29.7-7.5,15-11.5,20.2-19.5c5.3-8,9.1-17,11.6-27.2,2.4-10.2,3.7-20.4,3.7-30.7Z"/>
  </g>
</svg>